<svg xmlns="http://www.w3.org/2000/svg" xmlns:xlink="http://www.w3.org/1999/xlink" width="500" zoomAndPan="magnify" viewBox="0 0 375 374.999991" height="500" preserveAspectRatio="xMidYMid meet" version="1.0"><defs><g/><clipPath id="3c6b2bde89"><path d="M 55 147 L 115 147 L 115 228 L 55 228 Z M 55 147 " clip-rule="nonzero"/></clipPath><clipPath id="7e453799cf"><path d="M 50.121094 157.167969 L 76.230469 142.171875 L 120.050781 218.457031 L 93.941406 233.453125 Z M 50.121094 157.167969 " clip-rule="nonzero"/></clipPath><clipPath id="168e983913"><path d="M 63.175781 149.667969 C 66.636719 147.679688 70.75 147.148438 74.601562 148.191406 C 78.457031 149.230469 81.738281 151.761719 83.730469 155.222656 L 112.535156 205.367188 C 114.523438 208.832031 115.054688 212.941406 114.011719 216.796875 C 112.972656 220.648438 110.441406 223.933594 106.976562 225.921875 C 103.515625 227.910156 99.40625 228.441406 95.550781 227.402344 C 91.695312 226.359375 88.414062 223.828125 86.425781 220.367188 L 57.621094 170.222656 C 55.632812 166.761719 55.101562 162.648438 56.140625 158.796875 C 57.183594 154.941406 59.714844 151.65625 63.175781 149.667969 Z M 63.175781 149.667969 " clip-rule="nonzero"/></clipPath><clipPath id="240308a179"><path d="M 0 0.121094 L 60 0.121094 L 60 81 L 0 81 Z M 0 0.121094 " clip-rule="nonzero"/></clipPath><clipPath id="62e42c921c"><path d="M -4.878906 10.167969 L 21.230469 -4.828125 L 65.050781 71.457031 L 38.941406 86.453125 Z M -4.878906 10.167969 " clip-rule="nonzero"/></clipPath><clipPath id="bd1605648b"><path d="M 8.175781 2.667969 C 11.636719 0.679688 15.75 0.148438 19.601562 1.191406 C 23.457031 2.230469 26.738281 4.761719 28.730469 8.222656 L 57.535156 58.367188 C 59.523438 61.832031 60.054688 65.941406 59.011719 69.796875 C 57.972656 73.648438 55.441406 76.933594 51.976562 78.921875 C 48.515625 80.910156 44.40625 81.441406 40.550781 80.402344 C 36.695312 79.359375 33.414062 76.828125 31.425781 73.367188 L 2.621094 23.222656 C 0.632812 19.761719 0.101562 15.648438 1.140625 11.796875 C 2.183594 7.941406 4.714844 4.65625 8.175781 2.667969 Z M 8.175781 2.667969 " clip-rule="nonzero"/></clipPath><clipPath id="b0d303a55c"><rect x="0" width="60" y="0" height="81"/></clipPath><clipPath id="6ff208f8c5"><path d="M 24.875 196.578125 L 55.894531 196.578125 L 55.894531 227.597656 L 24.875 227.597656 Z M 24.875 196.578125 " clip-rule="nonzero"/></clipPath><clipPath id="e332f1d060"><path d="M 40.382812 196.578125 C 31.816406 196.578125 24.875 203.519531 24.875 212.085938 C 24.875 220.652344 31.816406 227.597656 40.382812 227.597656 C 48.949219 227.597656 55.894531 220.652344 55.894531 212.085938 C 55.894531 203.519531 48.949219 196.578125 40.382812 196.578125 Z M 40.382812 196.578125 " clip-rule="nonzero"/></clipPath><clipPath id="bebc0cba60"><path d="M 0.875 0.578125 L 31.894531 0.578125 L 31.894531 31.597656 L 0.875 31.597656 Z M 0.875 0.578125 " clip-rule="nonzero"/></clipPath><clipPath id="547d176675"><path d="M 16.382812 0.578125 C 7.816406 0.578125 0.875 7.519531 0.875 16.085938 C 0.875 24.652344 7.816406 31.597656 16.382812 31.597656 C 24.949219 31.597656 31.894531 24.652344 31.894531 16.085938 C 31.894531 7.519531 24.949219 0.578125 16.382812 0.578125 Z M 16.382812 0.578125 " clip-rule="nonzero"/></clipPath><clipPath id="d9a56bd147"><rect x="0" width="32" y="0" height="32"/></clipPath></defs><g clip-path="url(#3c6b2bde89)"><g clip-path="url(#7e453799cf)"><g clip-path="url(#168e983913)"><g transform="matrix(1, 0, 0, 1, 55, 147)"><g clip-path="url(#b0d303a55c)"><g clip-path="url(#240308a179)"><g clip-path="url(#62e42c921c)"><g clip-path="url(#bd1605648b)"><path fill="#3a4968" d="M -4.878906 10.167969 L 21.230469 -4.828125 L 65.050781 71.457031 L 38.941406 86.453125 Z M -4.878906 10.167969 " fill-opacity="1" fill-rule="nonzero"/></g></g></g></g></g></g></g></g><g clip-path="url(#6ff208f8c5)"><g clip-path="url(#e332f1d060)"><g transform="matrix(1, 0, 0, 1, 24, 196)"><g clip-path="url(#d9a56bd147)"><g clip-path="url(#bebc0cba60)"><g clip-path="url(#547d176675)"><path fill="#ff3d33" d="M 0.875 0.578125 L 31.894531 0.578125 L 31.894531 31.597656 L 0.875 31.597656 Z M 0.875 0.578125 " fill-opacity="1" fill-rule="nonzero"/></g></g></g></g></g></g><g fill="#3a4968" fill-opacity="1"><g transform="translate(126.479775, 182.094994)"><g><path d="M 1.875 -12.046875 C 1.875 -14.492188 2.367188 -16.640625 3.359375 -18.484375 C 4.347656 -20.335938 5.707031 -21.769531 7.4375 -22.78125 C 9.175781 -23.800781 11.109375 -24.3125 13.234375 -24.3125 C 15.328125 -24.3125 17.144531 -23.859375 18.6875 -22.953125 C 20.226562 -22.054688 21.378906 -20.925781 22.140625 -19.5625 L 22.140625 -23.921875 L 26.15625 -23.921875 L 26.15625 0 L 22.140625 0 L 22.140625 -4.453125 C 21.347656 -3.054688 20.171875 -1.898438 18.609375 -0.984375 C 17.054688 -0.0664062 15.25 0.390625 13.1875 0.390625 C 11.0625 0.390625 9.140625 -0.128906 7.421875 -1.171875 C 5.703125 -2.222656 4.347656 -3.691406 3.359375 -5.578125 C 2.367188 -7.472656 1.875 -9.628906 1.875 -12.046875 Z M 22.140625 -12 C 22.140625 -13.8125 21.773438 -15.382812 21.046875 -16.71875 C 20.316406 -18.0625 19.332031 -19.085938 18.09375 -19.796875 C 16.851562 -20.515625 15.492188 -20.875 14.015625 -20.875 C 12.523438 -20.875 11.171875 -20.519531 9.953125 -19.8125 C 8.734375 -19.113281 7.757812 -18.09375 7.03125 -16.75 C 6.300781 -15.414062 5.9375 -13.847656 5.9375 -12.046875 C 5.9375 -10.210938 6.300781 -8.617188 7.03125 -7.265625 C 7.757812 -5.910156 8.734375 -4.875 9.953125 -4.15625 C 11.171875 -3.445312 12.523438 -3.09375 14.015625 -3.09375 C 15.492188 -3.09375 16.851562 -3.445312 18.09375 -4.15625 C 19.332031 -4.875 20.316406 -5.910156 21.046875 -7.265625 C 21.773438 -8.617188 22.140625 -10.195312 22.140625 -12 Z M 22.140625 -12 "/></g></g></g><g fill="#3a4968" fill-opacity="1"><g transform="translate(153.448943, 182.094994)"><g><path d="M 7.328125 -32.3125 L 7.328125 0 L 3.359375 0 L 3.359375 -32.3125 Z M 7.328125 -32.3125 "/></g></g></g><g fill="#3a4968" fill-opacity="1"><g transform="translate(161.65264, 182.094994)"><g><path d="M 7.328125 -19.515625 C 8.117188 -20.878906 9.289062 -22.019531 10.84375 -22.9375 C 12.40625 -23.851562 14.21875 -24.3125 16.28125 -24.3125 C 18.40625 -24.3125 20.332031 -23.800781 22.0625 -22.78125 C 23.800781 -21.769531 25.164062 -20.335938 26.15625 -18.484375 C 27.144531 -16.640625 27.640625 -14.492188 27.640625 -12.046875 C 27.640625 -9.628906 27.144531 -7.472656 26.15625 -5.578125 C 25.164062 -3.691406 23.800781 -2.222656 22.0625 -1.171875 C 20.332031 -0.128906 18.40625 0.390625 16.28125 0.390625 C 14.25 0.390625 12.453125 -0.0664062 10.890625 -0.984375 C 9.335938 -1.898438 8.148438 -3.039062 7.328125 -4.40625 L 7.328125 11.34375 L 3.359375 11.34375 L 3.359375 -23.921875 L 7.328125 -23.921875 Z M 23.578125 -12.046875 C 23.578125 -13.847656 23.210938 -15.414062 22.484375 -16.75 C 21.753906 -18.09375 20.769531 -19.113281 19.53125 -19.8125 C 18.300781 -20.519531 16.941406 -20.875 15.453125 -20.875 C 13.992188 -20.875 12.644531 -20.515625 11.40625 -19.796875 C 10.175781 -19.085938 9.1875 -18.054688 8.4375 -16.703125 C 7.695312 -15.347656 7.328125 -13.78125 7.328125 -12 C 7.328125 -10.195312 7.695312 -8.617188 8.4375 -7.265625 C 9.1875 -5.910156 10.175781 -4.875 11.40625 -4.15625 C 12.644531 -3.445312 13.992188 -3.09375 15.453125 -3.09375 C 16.941406 -3.09375 18.300781 -3.445312 19.53125 -4.15625 C 20.769531 -4.875 21.753906 -5.910156 22.484375 -7.265625 C 23.210938 -8.617188 23.578125 -10.210938 23.578125 -12.046875 Z M 23.578125 -12.046875 "/></g></g></g><g fill="#3a4968" fill-opacity="1"><g transform="translate(188.621808, 182.094994)"><g><path d="M 15.234375 -24.359375 C 17.035156 -24.359375 18.664062 -23.972656 20.125 -23.203125 C 21.582031 -22.429688 22.722656 -21.273438 23.546875 -19.734375 C 24.378906 -18.191406 24.796875 -16.3125 24.796875 -14.09375 L 24.796875 0 L 20.875 0 L 20.875 -13.53125 C 20.875 -15.914062 20.273438 -17.738281 19.078125 -19 C 17.878906 -20.269531 16.25 -20.90625 14.1875 -20.90625 C 12.09375 -20.90625 10.425781 -20.25 9.1875 -18.9375 C 7.945312 -17.632812 7.328125 -15.734375 7.328125 -13.234375 L 7.328125 0 L 3.359375 0 L 3.359375 -32.3125 L 7.328125 -32.3125 L 7.328125 -20.515625 C 8.117188 -21.742188 9.203125 -22.691406 10.578125 -23.359375 C 11.960938 -24.023438 13.515625 -24.359375 15.234375 -24.359375 Z M 15.234375 -24.359375 "/></g></g></g><g fill="#3a4968" fill-opacity="1"><g transform="translate(214.019908, 182.094994)"><g><path d="M 1.875 -12.046875 C 1.875 -14.492188 2.367188 -16.640625 3.359375 -18.484375 C 4.347656 -20.335938 5.707031 -21.769531 7.4375 -22.78125 C 9.175781 -23.800781 11.109375 -24.3125 13.234375 -24.3125 C 15.328125 -24.3125 17.144531 -23.859375 18.6875 -22.953125 C 20.226562 -22.054688 21.378906 -20.925781 22.140625 -19.5625 L 22.140625 -23.921875 L 26.15625 -23.921875 L 26.15625 0 L 22.140625 0 L 22.140625 -4.453125 C 21.347656 -3.054688 20.171875 -1.898438 18.609375 -0.984375 C 17.054688 -0.0664062 15.25 0.390625 13.1875 0.390625 C 11.0625 0.390625 9.140625 -0.128906 7.421875 -1.171875 C 5.703125 -2.222656 4.347656 -3.691406 3.359375 -5.578125 C 2.367188 -7.472656 1.875 -9.628906 1.875 -12.046875 Z M 22.140625 -12 C 22.140625 -13.8125 21.773438 -15.382812 21.046875 -16.71875 C 20.316406 -18.0625 19.332031 -19.085938 18.09375 -19.796875 C 16.851562 -20.515625 15.492188 -20.875 14.015625 -20.875 C 12.523438 -20.875 11.171875 -20.519531 9.953125 -19.8125 C 8.734375 -19.113281 7.757812 -18.09375 7.03125 -16.75 C 6.300781 -15.414062 5.9375 -13.847656 5.9375 -12.046875 C 5.9375 -10.210938 6.300781 -8.617188 7.03125 -7.265625 C 7.757812 -5.910156 8.734375 -4.875 9.953125 -4.15625 C 11.171875 -3.445312 12.523438 -3.09375 14.015625 -3.09375 C 15.492188 -3.09375 16.851562 -3.445312 18.09375 -4.15625 C 19.332031 -4.875 20.316406 -5.910156 21.046875 -7.265625 C 21.773438 -8.617188 22.140625 -10.195312 22.140625 -12 Z M 22.140625 -12 "/></g></g></g><g fill="#3a4968" fill-opacity="1"><g transform="translate(126.479775, 220.344991)"><g><path d="M 8.203125 -20.65625 L 8.203125 -6.546875 C 8.203125 -5.378906 8.445312 -4.554688 8.9375 -4.078125 C 9.4375 -3.597656 10.300781 -3.359375 11.53125 -3.359375 L 14.453125 -3.359375 L 14.453125 0 L 10.875 0 C 8.65625 0 6.992188 -0.507812 5.890625 -1.53125 C 4.785156 -2.550781 4.234375 -4.222656 4.234375 -6.546875 L 4.234375 -20.65625 L 1.140625 -20.65625 L 1.140625 -23.921875 L 4.234375 -23.921875 L 4.234375 -29.953125 L 8.203125 -29.953125 L 8.203125 -23.921875 L 14.453125 -23.921875 L 14.453125 -20.65625 Z M 8.203125 -20.65625 "/></g></g></g><g fill="#3a4968" fill-opacity="1"><g transform="translate(139.833073, 220.344991)"><g><path d="M 25.1875 -12.875 C 25.1875 -12.125 25.144531 -11.328125 25.0625 -10.484375 L 5.9375 -10.484375 C 6.082031 -8.117188 6.890625 -6.273438 8.359375 -4.953125 C 9.828125 -3.628906 11.609375 -2.96875 13.703125 -2.96875 C 15.421875 -2.96875 16.851562 -3.367188 18 -4.171875 C 19.15625 -4.972656 19.96875 -6.039062 20.4375 -7.375 L 24.703125 -7.375 C 24.066406 -5.070312 22.785156 -3.203125 20.859375 -1.765625 C 18.941406 -0.328125 16.554688 0.390625 13.703125 0.390625 C 11.429688 0.390625 9.398438 -0.113281 7.609375 -1.125 C 5.828125 -2.144531 4.425781 -3.59375 3.40625 -5.46875 C 2.382812 -7.351562 1.875 -9.53125 1.875 -12 C 1.875 -14.476562 2.367188 -16.644531 3.359375 -18.5 C 4.347656 -20.363281 5.738281 -21.796875 7.53125 -22.796875 C 9.320312 -23.804688 11.378906 -24.3125 13.703125 -24.3125 C 15.972656 -24.3125 17.984375 -23.816406 19.734375 -22.828125 C 21.484375 -21.835938 22.828125 -20.476562 23.765625 -18.75 C 24.710938 -17.019531 25.1875 -15.0625 25.1875 -12.875 Z M 21.09375 -13.703125 C 21.09375 -15.222656 20.753906 -16.523438 20.078125 -17.609375 C 19.410156 -18.703125 18.5 -19.53125 17.34375 -20.09375 C 16.195312 -20.664062 14.925781 -20.953125 13.53125 -20.953125 C 11.519531 -20.953125 9.804688 -20.3125 8.390625 -19.03125 C 6.984375 -17.75 6.179688 -15.972656 5.984375 -13.703125 Z M 21.09375 -13.703125 "/></g></g></g><g fill="#3a4968" fill-opacity="1"><g transform="translate(164.358367, 220.344991)"><g><path d="M 1.875 -12 C 1.875 -14.476562 2.367188 -16.640625 3.359375 -18.484375 C 4.347656 -20.335938 5.722656 -21.769531 7.484375 -22.78125 C 9.242188 -23.800781 11.257812 -24.3125 13.53125 -24.3125 C 16.46875 -24.3125 18.890625 -23.597656 20.796875 -22.171875 C 22.703125 -20.742188 23.960938 -18.765625 24.578125 -16.234375 L 20.296875 -16.234375 C 19.890625 -17.691406 19.097656 -18.84375 17.921875 -19.6875 C 16.742188 -20.53125 15.28125 -20.953125 13.53125 -20.953125 C 11.257812 -20.953125 9.425781 -20.171875 8.03125 -18.609375 C 6.632812 -17.054688 5.9375 -14.851562 5.9375 -12 C 5.9375 -9.125 6.632812 -6.898438 8.03125 -5.328125 C 9.425781 -3.753906 11.257812 -2.96875 13.53125 -2.96875 C 15.28125 -2.96875 16.734375 -3.375 17.890625 -4.1875 C 19.054688 -5 19.859375 -6.164062 20.296875 -7.6875 L 24.578125 -7.6875 C 23.941406 -5.238281 22.660156 -3.28125 20.734375 -1.8125 C 18.816406 -0.34375 16.414062 0.390625 13.53125 0.390625 C 11.257812 0.390625 9.242188 -0.113281 7.484375 -1.125 C 5.722656 -2.144531 4.347656 -3.585938 3.359375 -5.453125 C 2.367188 -7.316406 1.875 -9.5 1.875 -12 Z M 1.875 -12 "/></g></g></g><g fill="#3a4968" fill-opacity="1"><g transform="translate(188.316331, 220.344991)"><g><path d="M 15.234375 -24.359375 C 17.035156 -24.359375 18.664062 -23.972656 20.125 -23.203125 C 21.582031 -22.429688 22.722656 -21.273438 23.546875 -19.734375 C 24.378906 -18.191406 24.796875 -16.3125 24.796875 -14.09375 L 24.796875 0 L 20.875 0 L 20.875 -13.53125 C 20.875 -15.914062 20.273438 -17.738281 19.078125 -19 C 17.878906 -20.269531 16.25 -20.90625 14.1875 -20.90625 C 12.09375 -20.90625 10.425781 -20.25 9.1875 -18.9375 C 7.945312 -17.632812 7.328125 -15.734375 7.328125 -13.234375 L 7.328125 0 L 3.359375 0 L 3.359375 -32.3125 L 7.328125 -32.3125 L 7.328125 -20.515625 C 8.117188 -21.742188 9.203125 -22.691406 10.578125 -23.359375 C 11.960938 -24.023438 13.515625 -24.359375 15.234375 -24.359375 Z M 15.234375 -24.359375 "/></g></g></g><g fill="#3a4968" fill-opacity="1"><g transform="translate(213.714431, 220.344991)"><g><path d="M 15.015625 -24.359375 C 17.929688 -24.359375 20.289062 -23.476562 22.09375 -21.71875 C 23.894531 -19.957031 24.796875 -17.414062 24.796875 -14.09375 L 24.796875 0 L 20.875 0 L 20.875 -13.53125 C 20.875 -15.914062 20.273438 -17.738281 19.078125 -19 C 17.878906 -20.269531 16.25 -20.90625 14.1875 -20.90625 C 12.09375 -20.90625 10.425781 -20.25 9.1875 -18.9375 C 7.945312 -17.632812 7.328125 -15.734375 7.328125 -13.234375 L 7.328125 0 L 3.359375 0 L 3.359375 -23.921875 L 7.328125 -23.921875 L 7.328125 -20.515625 C 8.117188 -21.742188 9.191406 -22.691406 10.546875 -23.359375 C 11.898438 -24.023438 13.390625 -24.359375 15.015625 -24.359375 Z M 15.015625 -24.359375 "/></g></g></g><g fill="#3a4968" fill-opacity="1"><g transform="translate(239.112531, 220.344991)"><g><path d="M 13.796875 0.390625 C 11.554688 0.390625 9.523438 -0.113281 7.703125 -1.125 C 5.890625 -2.144531 4.460938 -3.59375 3.421875 -5.46875 C 2.390625 -7.351562 1.875 -9.53125 1.875 -12 C 1.875 -14.445312 2.40625 -16.609375 3.46875 -18.484375 C 4.53125 -20.359375 5.976562 -21.796875 7.8125 -22.796875 C 9.644531 -23.804688 11.695312 -24.3125 13.96875 -24.3125 C 16.238281 -24.3125 18.289062 -23.804688 20.125 -22.796875 C 21.957031 -21.796875 23.40625 -20.363281 24.46875 -18.5 C 25.53125 -16.644531 26.0625 -14.476562 26.0625 -12 C 26.0625 -9.53125 25.515625 -7.351562 24.421875 -5.46875 C 23.328125 -3.59375 21.847656 -2.144531 19.984375 -1.125 C 18.128906 -0.113281 16.066406 0.390625 13.796875 0.390625 Z M 13.796875 -3.09375 C 15.222656 -3.09375 16.5625 -3.425781 17.8125 -4.09375 C 19.0625 -4.769531 20.070312 -5.773438 20.84375 -7.109375 C 21.613281 -8.453125 22 -10.082031 22 -12 C 22 -13.925781 21.617188 -15.554688 20.859375 -16.890625 C 20.109375 -18.234375 19.117188 -19.234375 17.890625 -19.890625 C 16.671875 -20.546875 15.347656 -20.875 13.921875 -20.875 C 12.472656 -20.875 11.144531 -20.546875 9.9375 -19.890625 C 8.726562 -19.234375 7.757812 -18.234375 7.03125 -16.890625 C 6.300781 -15.554688 5.9375 -13.925781 5.9375 -12 C 5.9375 -10.050781 6.289062 -8.40625 7 -7.0625 C 7.71875 -5.726562 8.671875 -4.734375 9.859375 -4.078125 C 11.054688 -3.421875 12.367188 -3.09375 13.796875 -3.09375 Z M 13.796875 -3.09375 "/></g></g></g><g fill="#3a4968" fill-opacity="1"><g transform="translate(264.510632, 220.344991)"><g><path d="M 7.328125 -32.3125 L 7.328125 0 L 3.359375 0 L 3.359375 -32.3125 Z M 7.328125 -32.3125 "/></g></g></g><g fill="#3a4968" fill-opacity="1"><g transform="translate(272.714328, 220.344991)"><g><path d="M 13.796875 0.390625 C 11.554688 0.390625 9.523438 -0.113281 7.703125 -1.125 C 5.890625 -2.144531 4.460938 -3.59375 3.421875 -5.46875 C 2.390625 -7.351562 1.875 -9.53125 1.875 -12 C 1.875 -14.445312 2.40625 -16.609375 3.46875 -18.484375 C 4.53125 -20.359375 5.976562 -21.796875 7.8125 -22.796875 C 9.644531 -23.804688 11.695312 -24.3125 13.96875 -24.3125 C 16.238281 -24.3125 18.289062 -23.804688 20.125 -22.796875 C 21.957031 -21.796875 23.40625 -20.363281 24.46875 -18.5 C 25.53125 -16.644531 26.0625 -14.476562 26.0625 -12 C 26.0625 -9.53125 25.515625 -7.351562 24.421875 -5.46875 C 23.328125 -3.59375 21.847656 -2.144531 19.984375 -1.125 C 18.128906 -0.113281 16.066406 0.390625 13.796875 0.390625 Z M 13.796875 -3.09375 C 15.222656 -3.09375 16.5625 -3.425781 17.8125 -4.09375 C 19.0625 -4.769531 20.070312 -5.773438 20.84375 -7.109375 C 21.613281 -8.453125 22 -10.082031 22 -12 C 22 -13.925781 21.617188 -15.554688 20.859375 -16.890625 C 20.109375 -18.234375 19.117188 -19.234375 17.890625 -19.890625 C 16.671875 -20.546875 15.347656 -20.875 13.921875 -20.875 C 12.472656 -20.875 11.144531 -20.546875 9.9375 -19.890625 C 8.726562 -19.234375 7.757812 -18.234375 7.03125 -16.890625 C 6.300781 -15.554688 5.9375 -13.925781 5.9375 -12 C 5.9375 -10.050781 6.289062 -8.40625 7 -7.0625 C 7.71875 -5.726562 8.671875 -4.734375 9.859375 -4.078125 C 11.054688 -3.421875 12.367188 -3.09375 13.796875 -3.09375 Z M 13.796875 -3.09375 "/></g></g></g><g fill="#3a4968" fill-opacity="1"><g transform="translate(298.112429, 220.344991)"><g><path d="M 13.234375 -24.3125 C 15.296875 -24.3125 17.101562 -23.859375 18.65625 -22.953125 C 20.21875 -22.054688 21.378906 -20.925781 22.140625 -19.5625 L 22.140625 -23.921875 L 26.15625 -23.921875 L 26.15625 0.53125 C 26.15625 2.707031 25.6875 4.644531 24.75 6.34375 C 23.820312 8.050781 22.488281 9.382812 20.75 10.34375 C 19.019531 11.300781 17.007812 11.78125 14.71875 11.78125 C 11.570312 11.78125 8.945312 11.035156 6.84375 9.546875 C 4.75 8.066406 3.515625 6.050781 3.140625 3.5 L 7.078125 3.5 C 7.515625 4.945312 8.414062 6.113281 9.78125 7 C 11.144531 7.894531 12.789062 8.34375 14.71875 8.34375 C 16.894531 8.34375 18.675781 7.65625 20.0625 6.28125 C 21.445312 4.914062 22.140625 3 22.140625 0.53125 L 22.140625 -4.5 C 21.347656 -3.101562 20.179688 -1.9375 18.640625 -1 C 17.097656 -0.0703125 15.296875 0.390625 13.234375 0.390625 C 11.109375 0.390625 9.175781 -0.128906 7.4375 -1.171875 C 5.707031 -2.222656 4.347656 -3.691406 3.359375 -5.578125 C 2.367188 -7.472656 1.875 -9.628906 1.875 -12.046875 C 1.875 -14.492188 2.367188 -16.640625 3.359375 -18.484375 C 4.347656 -20.335938 5.707031 -21.769531 7.4375 -22.78125 C 9.175781 -23.800781 11.109375 -24.3125 13.234375 -24.3125 Z M 22.140625 -12 C 22.140625 -13.8125 21.773438 -15.382812 21.046875 -16.71875 C 20.316406 -18.0625 19.332031 -19.085938 18.09375 -19.796875 C 16.851562 -20.515625 15.492188 -20.875 14.015625 -20.875 C 12.523438 -20.875 11.171875 -20.519531 9.953125 -19.8125 C 8.734375 -19.113281 7.757812 -18.09375 7.03125 -16.75 C 6.300781 -15.414062 5.9375 -13.847656 5.9375 -12.046875 C 5.9375 -10.210938 6.300781 -8.617188 7.03125 -7.265625 C 7.757812 -5.910156 8.734375 -4.875 9.953125 -4.15625 C 11.171875 -3.445312 12.523438 -3.09375 14.015625 -3.09375 C 15.492188 -3.09375 16.851562 -3.445312 18.09375 -4.15625 C 19.332031 -4.875 20.316406 -5.910156 21.046875 -7.265625 C 21.773438 -8.617188 22.140625 -10.195312 22.140625 -12 Z M 22.140625 -12 "/></g></g></g><g fill="#3a4968" fill-opacity="1"><g transform="translate(325.081586, 220.344991)"><g><path d="M 23.96875 -23.921875 L 9.5625 11.265625 L 5.453125 11.265625 L 10.171875 -0.265625 L 0.53125 -23.921875 L 4.9375 -23.921875 L 12.4375 -4.546875 L 19.859375 -23.921875 Z M 23.96875 -23.921875 "/></g></g></g></svg>