<svg xmlns="http://www.w3.org/2000/svg" xmlns:xlink="http://www.w3.org/1999/xlink" width="500" zoomAndPan="magnify" viewBox="0 0 375 374.999991" height="500" preserveAspectRatio="xMidYMid meet" version="1.0"><defs><g/><clipPath id="afa1646392"><path d="M 148 33 L 286 33 L 286 221 L 148 221 Z M 148 33 " clip-rule="nonzero"/></clipPath><clipPath id="00e5e8d58a"><path d="M 135.550781 56.035156 L 196.289062 21.148438 L 298.230469 198.609375 L 237.492188 233.5 Z M 135.550781 56.035156 " clip-rule="nonzero"/></clipPath><clipPath id="f27202c1bf"><path d="M 165.917969 38.59375 C 173.972656 33.964844 183.535156 32.726562 192.503906 35.152344 C 201.46875 37.574219 209.105469 43.460938 213.730469 51.515625 L 280.738281 168.164062 C 285.367188 176.21875 286.605469 185.78125 284.179688 194.746094 C 281.757812 203.714844 275.871094 211.351562 267.816406 215.976562 C 259.761719 220.601562 250.199219 221.839844 241.234375 219.417969 C 232.269531 216.992188 224.632812 211.105469 220.003906 203.054688 L 152.996094 86.40625 C 148.371094 78.351562 147.132812 68.789062 149.554688 59.820312 C 151.980469 50.855469 157.867188 43.21875 165.917969 38.59375 Z M 165.917969 38.59375 " clip-rule="nonzero"/></clipPath><clipPath id="738755612a"><path d="M 0 0 L 138 0 L 138 188 L 0 188 Z M 0 0 " clip-rule="nonzero"/></clipPath><clipPath id="043e4f92b8"><path d="M -12.449219 23.035156 L 48.289062 -11.851562 L 150.230469 165.609375 L 89.492188 200.5 Z M -12.449219 23.035156 " clip-rule="nonzero"/></clipPath><clipPath id="22d7493cc4"><path d="M 17.917969 5.59375 C 25.972656 0.964844 35.535156 -0.273438 44.503906 2.152344 C 53.46875 4.574219 61.105469 10.460938 65.730469 18.515625 L 132.738281 135.164062 C 137.367188 143.21875 138.605469 152.78125 136.179688 161.746094 C 133.757812 170.714844 127.871094 178.351562 119.816406 182.976562 C 111.761719 187.601562 102.199219 188.839844 93.234375 186.417969 C 84.269531 183.992188 76.632812 178.105469 72.003906 170.054688 L 4.996094 53.40625 C 0.371094 45.351562 -0.867188 35.789062 1.554688 26.820312 C 3.980469 17.855469 9.867188 10.21875 17.917969 5.59375 Z M 17.917969 5.59375 " clip-rule="nonzero"/></clipPath><clipPath id="9850c20770"><rect x="0" width="138" y="0" height="188"/></clipPath><clipPath id="adf2ff5435"><path d="M 76.816406 147.710938 L 148.980469 147.710938 L 148.980469 219.875 L 76.816406 219.875 Z M 76.816406 147.710938 " clip-rule="nonzero"/></clipPath><clipPath id="b28c93e3a2"><path d="M 112.898438 147.710938 C 92.972656 147.710938 76.816406 163.867188 76.816406 183.792969 C 76.816406 203.71875 92.972656 219.875 112.898438 219.875 C 132.824219 219.875 148.980469 203.71875 148.980469 183.792969 C 148.980469 163.867188 132.824219 147.710938 112.898438 147.710938 Z M 112.898438 147.710938 " clip-rule="nonzero"/></clipPath><clipPath id="e5a0d0fa1c"><path d="M 0.816406 0.710938 L 72.980469 0.710938 L 72.980469 72.875 L 0.816406 72.875 Z M 0.816406 0.710938 " clip-rule="nonzero"/></clipPath><clipPath id="f9a042bc8c"><path d="M 36.898438 0.710938 C 16.972656 0.710938 0.816406 16.867188 0.816406 36.792969 C 0.816406 56.71875 16.972656 72.875 36.898438 72.875 C 56.824219 72.875 72.980469 56.71875 72.980469 36.792969 C 72.980469 16.867188 56.824219 0.710938 36.898438 0.710938 Z M 36.898438 0.710938 " clip-rule="nonzero"/></clipPath><clipPath id="acac9c4bf7"><rect x="0" width="73" y="0" height="73"/></clipPath></defs><g clip-path="url(#afa1646392)"><g clip-path="url(#00e5e8d58a)"><g clip-path="url(#f27202c1bf)"><g transform="matrix(1, 0, 0, 1, 148, 33)"><g clip-path="url(#9850c20770)"><g clip-path="url(#738755612a)"><g clip-path="url(#043e4f92b8)"><g clip-path="url(#22d7493cc4)"><path fill="#3a4968" d="M -12.449219 23.035156 L 48.289062 -11.851562 L 150.230469 165.609375 L 89.492188 200.5 Z M -12.449219 23.035156 " fill-opacity="1" fill-rule="nonzero"/></g></g></g></g></g></g></g></g><g clip-path="url(#adf2ff5435)"><g clip-path="url(#b28c93e3a2)"><g transform="matrix(1, 0, 0, 1, 76, 147)"><g clip-path="url(#acac9c4bf7)"><g clip-path="url(#e5a0d0fa1c)"><g clip-path="url(#f9a042bc8c)"><path fill="#ff3d33" d="M 0.816406 0.710938 L 72.980469 0.710938 L 72.980469 72.875 L 0.816406 72.875 Z M 0.816406 0.710938 " fill-opacity="1" fill-rule="nonzero"/></g></g></g></g></g></g><g fill="#3a4968" fill-opacity="1"><g transform="translate(78.399895, 299.798594)"><g><path d="M 24.21875 1.015625 C 20.03125 1.015625 16.40625 0.0078125 13.34375 -2 C 10.28125 -4.007812 7.925781 -6.742188 6.28125 -10.203125 C 4.644531 -13.660156 3.828125 -17.484375 3.828125 -21.671875 C 3.828125 -25.921875 4.734375 -29.757812 6.546875 -33.1875 C 8.359375 -36.613281 10.960938 -39.332031 14.359375 -41.34375 C 17.765625 -43.363281 21.847656 -44.375 26.609375 -44.375 C 31.191406 -44.375 35.125 -43.378906 38.40625 -41.390625 C 41.695312 -39.410156 44.234375 -36.71875 46.015625 -33.3125 C 47.804688 -29.914062 48.703125 -26.125 48.703125 -21.9375 L 48.703125 0 L 40.796875 0 L 40.796875 -8.84375 L 40.625 -8.84375 C 39.78125 -7.195312 38.632812 -5.625 37.1875 -4.125 C 35.738281 -2.625 33.9375 -1.390625 31.78125 -0.421875 C 29.632812 0.535156 27.113281 1.015625 24.21875 1.015625 Z M 26.265625 -5.6875 C 29.097656 -5.6875 31.601562 -6.378906 33.78125 -7.765625 C 35.96875 -9.160156 37.671875 -11.085938 38.890625 -13.546875 C 40.109375 -16.015625 40.71875 -18.78125 40.71875 -21.84375 C 40.71875 -24.84375 40.132812 -27.53125 38.96875 -29.90625 C 37.8125 -32.289062 36.15625 -34.175781 34 -35.5625 C 31.84375 -36.957031 29.320312 -37.65625 26.4375 -37.65625 C 23.375 -37.65625 20.75 -36.945312 18.5625 -35.53125 C 16.382812 -34.113281 14.710938 -32.203125 13.546875 -29.796875 C 12.390625 -27.390625 11.8125 -24.65625 11.8125 -21.59375 C 11.8125 -18.644531 12.378906 -15.960938 13.515625 -13.546875 C 14.648438 -11.140625 16.289062 -9.226562 18.4375 -7.8125 C 20.59375 -6.394531 23.203125 -5.6875 26.265625 -5.6875 Z M 26.265625 -5.6875 "/></g></g></g><g fill="#3a4968" fill-opacity="1"><g transform="translate(128.377431, 299.798594)"><g><path d="M 6.203125 0 L 6.203125 -62.046875 L 14.03125 -62.046875 L 14.03125 0 Z M 6.203125 0 "/></g></g></g><g fill="#3a4968" fill-opacity="1"><g transform="translate(143.676544, 299.798594)"><g><path d="M 28.140625 -44.375 C 31.421875 -44.375 34.421875 -43.847656 37.140625 -42.796875 C 39.859375 -41.742188 42.207031 -40.195312 44.1875 -38.15625 C 46.175781 -36.125 47.722656 -33.675781 48.828125 -30.8125 C 49.929688 -27.945312 50.484375 -24.734375 50.484375 -21.171875 C 50.484375 -16.691406 49.5625 -12.78125 47.71875 -9.4375 C 45.882812 -6.09375 43.378906 -3.515625 40.203125 -1.703125 C 37.023438 0.109375 33.425781 1.015625 29.40625 1.015625 C 27.195312 1.015625 25.085938 0.648438 23.078125 -0.078125 C 21.066406 -0.816406 19.28125 -1.851562 17.71875 -3.1875 C 16.164062 -4.519531 14.90625 -6.035156 13.9375 -7.734375 L 13.765625 -7.734375 L 13.765625 18.703125 L 5.953125 18.703125 L 5.953125 -21.421875 C 5.953125 -26.296875 6.925781 -30.429688 8.875 -33.828125 C 10.832031 -37.234375 13.484375 -39.84375 16.828125 -41.65625 C 20.171875 -43.46875 23.941406 -44.375 28.140625 -44.375 Z M 28.140625 -37.65625 C 25.523438 -37.65625 23.128906 -37.003906 20.953125 -35.703125 C 18.773438 -34.398438 17.046875 -32.554688 15.765625 -30.171875 C 14.492188 -27.796875 13.859375 -24.992188 13.859375 -21.765625 C 13.859375 -18.472656 14.492188 -15.625 15.765625 -13.21875 C 17.046875 -10.8125 18.773438 -8.953125 20.953125 -7.640625 C 23.128906 -6.335938 25.550781 -5.6875 28.21875 -5.6875 C 30.9375 -5.6875 33.375 -6.367188 35.53125 -7.734375 C 37.6875 -9.097656 39.398438 -10.96875 40.671875 -13.34375 C 41.941406 -15.726562 42.578125 -18.503906 42.578125 -21.671875 C 42.578125 -24.960938 41.925781 -27.796875 40.625 -30.171875 C 39.320312 -32.554688 37.578125 -34.398438 35.390625 -35.703125 C 33.210938 -37.003906 30.796875 -37.65625 28.140625 -37.65625 Z M 28.140625 -37.65625 "/></g></g></g><g fill="#3a4968" fill-opacity="1"><g transform="translate(193.059113, 299.798594)"><g><path d="M 6.203125 0 L 6.203125 -62.046875 L 14.03125 -62.046875 L 14.03125 -37.734375 C 15.78125 -40.003906 17.914062 -41.675781 20.4375 -42.75 C 22.957031 -43.832031 25.582031 -44.375 28.3125 -44.375 C 32.15625 -44.375 35.492188 -43.566406 38.328125 -41.953125 C 41.160156 -40.335938 43.367188 -38.082031 44.953125 -35.1875 C 46.546875 -32.300781 47.34375 -28.929688 47.34375 -25.078125 L 47.34375 0 L 39.53125 0 L 39.53125 -24.984375 C 39.53125 -27.597656 38.929688 -29.851562 37.734375 -31.75 C 36.546875 -33.644531 34.972656 -35.101562 33.015625 -36.125 C 31.066406 -37.144531 28.988281 -37.65625 26.78125 -37.65625 C 24.5625 -37.65625 22.488281 -37.160156 20.5625 -36.171875 C 18.644531 -35.179688 17.078125 -33.75 15.859375 -31.875 C 14.640625 -30 14.03125 -27.757812 14.03125 -25.15625 L 14.03125 0 Z M 6.203125 0 "/></g></g></g><g fill="#3a4968" fill-opacity="1"><g transform="translate(241.676713, 299.798594)"><g><path d="M 24.21875 1.015625 C 20.03125 1.015625 16.40625 0.0078125 13.34375 -2 C 10.28125 -4.007812 7.925781 -6.742188 6.28125 -10.203125 C 4.644531 -13.660156 3.828125 -17.484375 3.828125 -21.671875 C 3.828125 -25.921875 4.734375 -29.757812 6.546875 -33.1875 C 8.359375 -36.613281 10.960938 -39.332031 14.359375 -41.34375 C 17.765625 -43.363281 21.847656 -44.375 26.609375 -44.375 C 31.191406 -44.375 35.125 -43.378906 38.40625 -41.390625 C 41.695312 -39.410156 44.234375 -36.71875 46.015625 -33.3125 C 47.804688 -29.914062 48.703125 -26.125 48.703125 -21.9375 L 48.703125 0 L 40.796875 0 L 40.796875 -8.84375 L 40.625 -8.84375 C 39.78125 -7.195312 38.632812 -5.625 37.1875 -4.125 C 35.738281 -2.625 33.9375 -1.390625 31.78125 -0.421875 C 29.632812 0.535156 27.113281 1.015625 24.21875 1.015625 Z M 26.265625 -5.6875 C 29.097656 -5.6875 31.601562 -6.378906 33.78125 -7.765625 C 35.96875 -9.160156 37.671875 -11.085938 38.890625 -13.546875 C 40.109375 -16.015625 40.71875 -18.78125 40.71875 -21.84375 C 40.71875 -24.84375 40.132812 -27.53125 38.96875 -29.90625 C 37.8125 -32.289062 36.15625 -34.175781 34 -35.5625 C 31.84375 -36.957031 29.320312 -37.65625 26.4375 -37.65625 C 23.375 -37.65625 20.75 -36.945312 18.5625 -35.53125 C 16.382812 -34.113281 14.710938 -32.203125 13.546875 -29.796875 C 12.390625 -27.390625 11.8125 -24.65625 11.8125 -21.59375 C 11.8125 -18.644531 12.378906 -15.960938 13.515625 -13.546875 C 14.648438 -11.140625 16.289062 -9.226562 18.4375 -7.8125 C 20.59375 -6.394531 23.203125 -5.6875 26.265625 -5.6875 Z M 26.265625 -5.6875 "/></g></g></g><g fill="#3a4968" fill-opacity="1"><g transform="translate(79.993644, 342.548591)"><g><path d="M 10.78125 0 C 8.800781 0 7.25 -0.566406 6.125 -1.703125 C 5.007812 -2.835938 4.453125 -4.378906 4.453125 -6.328125 L 4.453125 -27.859375 L 8.46875 -27.859375 L 8.46875 -6.59375 C 8.46875 -5.632812 8.734375 -4.867188 9.265625 -4.296875 C 9.804688 -3.734375 10.5625 -3.453125 11.53125 -3.453125 L 16.015625 -3.453125 L 16.015625 0 Z M 0.609375 -18.8125 L 0.609375 -22.265625 L 16.109375 -22.265625 L 16.109375 -18.8125 Z M 0.609375 -18.8125 "/></g></g></g><g fill="#3a4968" fill-opacity="1"><g transform="translate(95.223487, 342.548591)"><g><path d="M 14.5 0 C 12.050781 0 9.878906 -0.457031 7.984375 -1.375 C 6.097656 -2.289062 4.625 -3.582031 3.5625 -5.25 C 2.5 -6.925781 1.96875 -8.882812 1.96875 -11.125 C 1.96875 -13.34375 2.414062 -15.332031 3.3125 -17.09375 C 4.21875 -18.851562 5.46875 -20.238281 7.0625 -21.25 C 8.664062 -22.269531 10.53125 -22.78125 12.65625 -22.78125 C 14.957031 -22.78125 16.867188 -22.285156 18.390625 -21.296875 C 19.921875 -20.304688 21.066406 -18.972656 21.828125 -17.296875 C 22.585938 -15.628906 22.96875 -13.765625 22.96875 -11.703125 C 22.96875 -11.378906 22.957031 -11.039062 22.9375 -10.6875 C 22.925781 -10.34375 22.890625 -10.039062 22.828125 -9.78125 L 6.25 -9.78125 C 6.394531 -8.414062 6.84375 -7.257812 7.59375 -6.3125 C 8.351562 -5.363281 9.320312 -4.648438 10.5 -4.171875 C 11.675781 -3.691406 12.976562 -3.453125 14.40625 -3.453125 L 20.21875 -3.453125 L 20.21875 0 Z M 6.203125 -12.609375 L 18.90625 -12.609375 C 18.90625 -13.171875 18.84375 -13.765625 18.71875 -14.390625 C 18.601562 -15.015625 18.398438 -15.625 18.109375 -16.21875 C 17.828125 -16.8125 17.441406 -17.347656 16.953125 -17.828125 C 16.472656 -18.304688 15.875 -18.691406 15.15625 -18.984375 C 14.445312 -19.273438 13.613281 -19.421875 12.65625 -19.421875 C 11.632812 -19.421875 10.738281 -19.222656 9.96875 -18.828125 C 9.195312 -18.441406 8.535156 -17.921875 7.984375 -17.265625 C 7.429688 -16.609375 7.007812 -15.875 6.71875 -15.0625 C 6.425781 -14.25 6.253906 -13.429688 6.203125 -12.609375 Z M 6.203125 -12.609375 "/></g></g></g><g fill="#3a4968" fill-opacity="1"><g transform="translate(117.566747, 342.548591)"><g><path d="M 13.96875 0 C 11.664062 0 9.613281 -0.492188 7.8125 -1.484375 C 6.007812 -2.472656 4.582031 -3.800781 3.53125 -5.46875 C 2.488281 -7.144531 1.96875 -9.03125 1.96875 -11.125 C 1.96875 -13.226562 2.488281 -15.113281 3.53125 -16.78125 C 4.582031 -18.457031 6.007812 -19.789062 7.8125 -20.78125 C 9.613281 -21.769531 11.664062 -22.265625 13.96875 -22.265625 L 16.59375 -22.265625 L 16.59375 -18.8125 L 13.84375 -18.8125 C 12.351562 -18.8125 11.019531 -18.46875 9.84375 -17.78125 C 8.664062 -17.101562 7.734375 -16.179688 7.046875 -15.015625 C 6.367188 -13.847656 6.03125 -12.550781 6.03125 -11.125 C 6.03125 -9.707031 6.367188 -8.414062 7.046875 -7.25 C 7.734375 -6.082031 8.664062 -5.15625 9.84375 -4.46875 C 11.019531 -3.789062 12.351562 -3.453125 13.84375 -3.453125 L 16.59375 -3.453125 L 16.59375 0 Z M 13.96875 0 "/></g></g></g><g fill="#3a4968" fill-opacity="1"><g transform="translate(133.014794, 342.548591)"><g><path d="M 3.1875 0 L 3.1875 -31.875 L 7.203125 -31.875 L 7.203125 -19.390625 C 8.109375 -20.546875 9.207031 -21.398438 10.5 -21.953125 C 11.789062 -22.503906 13.132812 -22.78125 14.53125 -22.78125 C 16.507812 -22.78125 18.226562 -22.363281 19.6875 -21.53125 C 21.144531 -20.707031 22.28125 -19.550781 23.09375 -18.0625 C 23.90625 -16.582031 24.3125 -14.851562 24.3125 -12.875 L 24.3125 0 L 20.296875 0 L 20.296875 -12.828125 C 20.296875 -14.171875 19.988281 -15.328125 19.375 -16.296875 C 18.769531 -17.273438 17.960938 -18.023438 16.953125 -18.546875 C 15.953125 -19.078125 14.882812 -19.34375 13.75 -19.34375 C 12.613281 -19.34375 11.550781 -19.085938 10.5625 -18.578125 C 9.570312 -18.066406 8.765625 -17.332031 8.140625 -16.375 C 7.515625 -15.414062 7.203125 -14.265625 7.203125 -12.921875 L 7.203125 0 Z M 3.1875 0 "/></g></g></g><g fill="#3a4968" fill-opacity="1"><g transform="translate(157.976485, 342.548591)"><g><path d="M 3.1875 0 L 3.1875 -12.875 C 3.1875 -14.851562 3.628906 -16.582031 4.515625 -18.0625 C 5.398438 -19.550781 6.628906 -20.707031 8.203125 -21.53125 C 9.773438 -22.363281 11.566406 -22.78125 13.578125 -22.78125 C 15.617188 -22.78125 17.414062 -22.363281 18.96875 -21.53125 C 20.519531 -20.707031 21.738281 -19.550781 22.625 -18.0625 C 23.519531 -16.582031 23.96875 -14.851562 23.96875 -12.875 L 23.96875 0 L 19.953125 0 L 19.953125 -12.828125 C 19.953125 -14.171875 19.648438 -15.328125 19.046875 -16.296875 C 18.453125 -17.273438 17.664062 -18.023438 16.6875 -18.546875 C 15.71875 -19.078125 14.679688 -19.34375 13.578125 -19.34375 C 12.472656 -19.34375 11.429688 -19.078125 10.453125 -18.546875 C 9.484375 -18.023438 8.695312 -17.273438 8.09375 -16.296875 C 7.5 -15.328125 7.203125 -14.171875 7.203125 -12.828125 L 7.203125 0 Z M 3.1875 0 "/></g></g></g><g fill="#3a4968" fill-opacity="1"><g transform="translate(182.589051, 342.548591)"><g><path d="M 13.671875 0.53125 C 11.398438 0.53125 9.390625 0.015625 7.640625 -1.015625 C 5.890625 -2.054688 4.503906 -3.457031 3.484375 -5.21875 C 2.472656 -6.976562 1.96875 -8.945312 1.96875 -11.125 C 1.96875 -13.3125 2.472656 -15.285156 3.484375 -17.046875 C 4.503906 -18.804688 5.890625 -20.203125 7.640625 -21.234375 C 9.390625 -22.265625 11.398438 -22.78125 13.671875 -22.78125 C 15.929688 -22.78125 17.941406 -22.265625 19.703125 -21.234375 C 21.472656 -20.203125 22.859375 -18.8125 23.859375 -17.0625 C 24.859375 -15.320312 25.359375 -13.34375 25.359375 -11.125 C 25.359375 -8.945312 24.859375 -6.976562 23.859375 -5.21875 C 22.859375 -3.457031 21.472656 -2.054688 19.703125 -1.015625 C 17.941406 0.015625 15.929688 0.53125 13.671875 0.53125 Z M 13.671875 -2.921875 C 15.210938 -2.921875 16.550781 -3.285156 17.6875 -4.015625 C 18.820312 -4.742188 19.707031 -5.722656 20.34375 -6.953125 C 20.976562 -8.191406 21.296875 -9.582031 21.296875 -11.125 C 21.296875 -12.675781 20.976562 -14.066406 20.34375 -15.296875 C 19.707031 -16.535156 18.820312 -17.519531 17.6875 -18.25 C 16.550781 -18.976562 15.210938 -19.34375 13.671875 -19.34375 C 12.148438 -19.34375 10.816406 -18.976562 9.671875 -18.25 C 8.523438 -17.519531 7.628906 -16.535156 6.984375 -15.296875 C 6.347656 -14.066406 6.03125 -12.675781 6.03125 -11.125 C 6.03125 -9.582031 6.347656 -8.191406 6.984375 -6.953125 C 7.628906 -5.722656 8.523438 -4.742188 9.671875 -4.015625 C 10.816406 -3.285156 12.148438 -2.921875 13.671875 -2.921875 Z M 13.671875 -2.921875 "/></g></g></g><g fill="#3a4968" fill-opacity="1"><g transform="translate(207.376186, 342.548591)"><g><path d="M 3.1875 0 L 3.1875 -31.875 L 7.203125 -31.875 L 7.203125 0 Z M 3.1875 0 "/></g></g></g><g fill="#3a4968" fill-opacity="1"><g transform="translate(215.230758, 342.548591)"><g><path d="M 13.671875 0.53125 C 11.398438 0.53125 9.390625 0.015625 7.640625 -1.015625 C 5.890625 -2.054688 4.503906 -3.457031 3.484375 -5.21875 C 2.472656 -6.976562 1.96875 -8.945312 1.96875 -11.125 C 1.96875 -13.3125 2.472656 -15.285156 3.484375 -17.046875 C 4.503906 -18.804688 5.890625 -20.203125 7.640625 -21.234375 C 9.390625 -22.265625 11.398438 -22.78125 13.671875 -22.78125 C 15.929688 -22.78125 17.941406 -22.265625 19.703125 -21.234375 C 21.472656 -20.203125 22.859375 -18.8125 23.859375 -17.0625 C 24.859375 -15.320312 25.359375 -13.34375 25.359375 -11.125 C 25.359375 -8.945312 24.859375 -6.976562 23.859375 -5.21875 C 22.859375 -3.457031 21.472656 -2.054688 19.703125 -1.015625 C 17.941406 0.015625 15.929688 0.53125 13.671875 0.53125 Z M 13.671875 -2.921875 C 15.210938 -2.921875 16.550781 -3.285156 17.6875 -4.015625 C 18.820312 -4.742188 19.707031 -5.722656 20.34375 -6.953125 C 20.976562 -8.191406 21.296875 -9.582031 21.296875 -11.125 C 21.296875 -12.675781 20.976562 -14.066406 20.34375 -15.296875 C 19.707031 -16.535156 18.820312 -17.519531 17.6875 -18.25 C 16.550781 -18.976562 15.210938 -19.34375 13.671875 -19.34375 C 12.148438 -19.34375 10.816406 -18.976562 9.671875 -18.25 C 8.523438 -17.519531 7.628906 -16.535156 6.984375 -15.296875 C 6.347656 -14.066406 6.03125 -12.675781 6.03125 -11.125 C 6.03125 -9.582031 6.347656 -8.191406 6.984375 -6.953125 C 7.628906 -5.722656 8.523438 -4.742188 9.671875 -4.015625 C 10.816406 -3.285156 12.148438 -2.921875 13.671875 -2.921875 Z M 13.671875 -2.921875 "/></g></g></g><g fill="#3a4968" fill-opacity="1"><g transform="translate(240.017893, 342.548591)"><g><path d="M 6.546875 8.859375 L 6.546875 5.40625 L 17.46875 5.40625 C 18.539062 5.40625 19.375 5.085938 19.96875 4.453125 C 20.570312 3.816406 20.875 2.972656 20.875 1.921875 L 20.875 -4.1875 L 20.78125 -4.1875 C 20.226562 -3.34375 19.554688 -2.585938 18.765625 -1.921875 C 17.984375 -1.253906 17.082031 -0.722656 16.0625 -0.328125 C 15.039062 0.0664062 13.890625 0.265625 12.609375 0.265625 C 10.515625 0.265625 8.664062 -0.21875 7.0625 -1.1875 C 5.46875 -2.164062 4.21875 -3.519531 3.3125 -5.25 C 2.414062 -6.988281 1.96875 -8.976562 1.96875 -11.21875 C 1.96875 -13.40625 2.414062 -15.367188 3.3125 -17.109375 C 4.21875 -18.859375 5.519531 -20.238281 7.21875 -21.25 C 8.925781 -22.269531 10.988281 -22.78125 13.40625 -22.78125 C 15.726562 -22.78125 17.75 -22.285156 19.46875 -21.296875 C 21.1875 -20.304688 22.519531 -18.929688 23.46875 -17.171875 C 24.414062 -15.410156 24.890625 -13.351562 24.890625 -11 L 24.890625 2.1875 C 24.890625 4.21875 24.289062 5.835938 23.09375 7.046875 C 21.894531 8.253906 20.265625 8.859375 18.203125 8.859375 Z M 13.359375 -3.1875 C 14.835938 -3.1875 16.140625 -3.535156 17.265625 -4.234375 C 18.390625 -4.929688 19.265625 -5.882812 19.890625 -7.09375 C 20.515625 -8.300781 20.828125 -9.660156 20.828125 -11.171875 C 20.828125 -12.710938 20.519531 -14.09375 19.90625 -15.3125 C 19.289062 -16.539062 18.429688 -17.507812 17.328125 -18.21875 C 16.222656 -18.9375 14.898438 -19.296875 13.359375 -19.296875 C 11.847656 -19.296875 10.546875 -18.9375 9.453125 -18.21875 C 8.359375 -17.507812 7.515625 -16.535156 6.921875 -15.296875 C 6.328125 -14.066406 6.03125 -12.675781 6.03125 -11.125 C 6.03125 -9.675781 6.328125 -8.347656 6.921875 -7.140625 C 7.515625 -5.929688 8.359375 -4.96875 9.453125 -4.25 C 10.546875 -3.539062 11.847656 -3.1875 13.359375 -3.1875 Z M 13.359375 -3.1875 "/></g></g></g><g fill="#3a4968" fill-opacity="1"><g transform="translate(265.415993, 342.548591)"><g><path d="M 11.609375 8.859375 L 11.609375 0.34375 C 9.984375 0.113281 8.535156 -0.425781 7.265625 -1.28125 C 6.003906 -2.144531 5.007812 -3.265625 4.28125 -4.640625 C 3.550781 -6.023438 3.1875 -7.609375 3.1875 -9.390625 L 3.1875 -22.265625 L 7.25 -22.265625 L 7.25 -9.4375 C 7.25 -8.09375 7.539062 -6.929688 8.125 -5.953125 C 8.707031 -4.984375 9.484375 -4.234375 10.453125 -3.703125 C 11.429688 -3.179688 12.472656 -2.921875 13.578125 -2.921875 C 14.710938 -2.921875 15.765625 -3.179688 16.734375 -3.703125 C 17.710938 -4.234375 18.5 -4.984375 19.09375 -5.953125 C 19.695312 -6.929688 20 -8.09375 20 -9.4375 L 20 -22.265625 L 24.015625 -22.265625 L 24.015625 -9.390625 C 24.015625 -7.609375 23.65625 -6.035156 22.9375 -4.671875 C 22.226562 -3.304688 21.238281 -2.191406 19.96875 -1.328125 C 18.707031 -0.472656 17.257812 0.0820312 15.625 0.34375 L 15.625 8.859375 Z M 11.609375 8.859375 "/></g></g></g></svg>