<svg xmlns="http://www.w3.org/2000/svg" xmlns:xlink="http://www.w3.org/1999/xlink" width="500" zoomAndPan="magnify" viewBox="0 0 375 374.999991" height="500" preserveAspectRatio="xMidYMid meet" version="1.0"><defs><clipPath id="39d56554b8"><path d="M 148 94 L 286 94 L 286 281 L 148 281 Z M 148 94 " clip-rule="nonzero"/></clipPath><clipPath id="1259127ed0"><path d="M 135.550781 116.253906 L 196.289062 81.363281 L 298.230469 258.824219 L 237.492188 293.714844 Z M 135.550781 116.253906 " clip-rule="nonzero"/></clipPath><clipPath id="23b473824e"><path d="M 165.917969 98.808594 C 173.972656 94.179688 183.535156 92.945312 192.503906 95.367188 C 201.46875 97.789062 209.105469 103.675781 213.730469 111.730469 L 280.738281 228.378906 C 285.367188 236.433594 286.605469 245.996094 284.179688 254.960938 C 281.757812 263.929688 275.871094 271.566406 267.816406 276.191406 C 259.761719 280.816406 250.199219 282.054688 241.234375 279.632812 C 232.269531 277.207031 224.632812 271.324219 220.003906 263.269531 L 152.996094 146.621094 C 148.371094 138.566406 147.132812 129.003906 149.554688 120.039062 C 151.980469 111.070312 157.867188 103.433594 165.917969 98.808594 Z M 165.917969 98.808594 " clip-rule="nonzero"/></clipPath><clipPath id="45146e4993"><path d="M 0 0 L 138 0 L 138 187 L 0 187 Z M 0 0 " clip-rule="nonzero"/></clipPath><clipPath id="84ef336b8e"><path d="M -12.449219 22.253906 L 48.289062 -12.636719 L 150.230469 164.824219 L 89.492188 199.714844 Z M -12.449219 22.253906 " clip-rule="nonzero"/></clipPath><clipPath id="3b77995c55"><path d="M 17.917969 4.808594 C 25.972656 0.179688 35.535156 -1.054688 44.503906 1.367188 C 53.46875 3.789062 61.105469 9.675781 65.730469 17.730469 L 132.738281 134.378906 C 137.367188 142.433594 138.605469 151.996094 136.179688 160.960938 C 133.757812 169.929688 127.871094 177.566406 119.816406 182.191406 C 111.761719 186.816406 102.199219 188.054688 93.234375 185.632812 C 84.269531 183.207031 76.632812 177.324219 72.003906 169.269531 L 4.996094 52.621094 C 0.371094 44.566406 -0.867188 35.003906 1.554688 26.039062 C 3.980469 17.070312 9.867188 9.433594 17.917969 4.808594 Z M 17.917969 4.808594 " clip-rule="nonzero"/></clipPath><clipPath id="65447d5f1e"><rect x="0" width="138" y="0" height="187"/></clipPath><clipPath id="51a262e89f"><path d="M 76.816406 207.925781 L 148.980469 207.925781 L 148.980469 280.089844 L 76.816406 280.089844 Z M 76.816406 207.925781 " clip-rule="nonzero"/></clipPath><clipPath id="0cfc16fca4"><path d="M 112.898438 207.925781 C 92.972656 207.925781 76.816406 224.082031 76.816406 244.007812 C 76.816406 263.933594 92.972656 280.089844 112.898438 280.089844 C 132.824219 280.089844 148.980469 263.933594 148.980469 244.007812 C 148.980469 224.082031 132.824219 207.925781 112.898438 207.925781 Z M 112.898438 207.925781 " clip-rule="nonzero"/></clipPath><clipPath id="8124a19047"><path d="M 0.816406 0.925781 L 72.980469 0.925781 L 72.980469 73.089844 L 0.816406 73.089844 Z M 0.816406 0.925781 " clip-rule="nonzero"/></clipPath><clipPath id="dec8161ec7"><path d="M 36.898438 0.925781 C 16.972656 0.925781 0.816406 17.082031 0.816406 37.007812 C 0.816406 56.933594 16.972656 73.089844 36.898438 73.089844 C 56.824219 73.089844 72.980469 56.933594 72.980469 37.007812 C 72.980469 17.082031 56.824219 0.925781 36.898438 0.925781 Z M 36.898438 0.925781 " clip-rule="nonzero"/></clipPath><clipPath id="9fe6ae340c"><rect x="0" width="73" y="0" height="74"/></clipPath></defs><g clip-path="url(#39d56554b8)"><g clip-path="url(#1259127ed0)"><g clip-path="url(#23b473824e)"><g transform="matrix(1, 0, 0, 1, 148, 94)"><g clip-path="url(#65447d5f1e)"><g clip-path="url(#45146e4993)"><g clip-path="url(#84ef336b8e)"><g clip-path="url(#3b77995c55)"><path fill="#3a4968" d="M -12.449219 22.253906 L 48.289062 -12.636719 L 150.230469 164.824219 L 89.492188 199.714844 Z M -12.449219 22.253906 " fill-opacity="1" fill-rule="nonzero"/></g></g></g></g></g></g></g></g><g clip-path="url(#51a262e89f)"><g clip-path="url(#0cfc16fca4)"><g transform="matrix(1, 0, 0, 1, 76, 207)"><g clip-path="url(#9fe6ae340c)"><g clip-path="url(#8124a19047)"><g clip-path="url(#dec8161ec7)"><path fill="#ff3d33" d="M 0.816406 0.925781 L 72.980469 0.925781 L 72.980469 73.089844 L 0.816406 73.089844 Z M 0.816406 0.925781 " fill-opacity="1" fill-rule="nonzero"/></g></g></g></g></g></g></svg>